<svg width="21" height="15" viewBox="0 0 21 15" fill="none" xmlns="http://www.w3.org/2000/svg">
<g clip-path="url(#clip0)">
<path d="M3.15024 6.42849C3.56561 6.42849 3.97165 6.30281 4.31702 6.06733C4.66239 5.83185 4.93158 5.49716 5.09053 5.10558C5.24949 4.71399 5.29108 4.28311 5.21004 3.8674C5.12901 3.4517 4.92899 3.06985 4.63528 2.77015C4.34156 2.47044 3.96735 2.26634 3.55996 2.18365C3.15257 2.10096 2.7303 2.1434 2.34654 2.3056C1.96279 2.4678 1.63479 2.74247 1.40402 3.09489C1.17325 3.44731 1.05008 3.86164 1.05008 4.28548C1.0505 4.85371 1.2719 5.39855 1.66567 5.80035C2.05943 6.20215 2.59337 6.42806 3.15024 6.42849ZM17.8503 6.42849C18.2657 6.42849 18.6717 6.30281 19.0171 6.06733C19.3624 5.83185 19.6316 5.49716 19.7906 5.10558C19.9495 4.71399 19.9911 4.28311 19.9101 3.8674C19.8291 3.4517 19.629 3.06985 19.3353 2.77015C19.0416 2.47044 18.6674 2.26634 18.26 2.18365C17.8526 2.10096 17.4303 2.1434 17.0466 2.3056C16.6628 2.4678 16.3348 2.74247 16.1041 3.09489C15.8733 3.44731 15.7501 3.86164 15.7501 4.28548C15.7506 4.85362 15.9719 5.39837 16.3655 5.80016C16.7592 6.20194 17.293 6.42792 17.8498 6.42849H17.8503ZM18.9004 7.5H16.8002C16.2452 7.49902 15.7125 7.72294 15.3192 8.12257C15.9839 8.49164 16.5536 9.01587 16.9818 9.65245C17.4101 10.289 17.6848 11.0199 17.7835 11.7855H19.9494C20.0873 11.7856 20.2239 11.758 20.3514 11.7042C20.4789 11.6504 20.5947 11.5715 20.6922 11.472C20.7898 11.3724 20.8671 11.2543 20.9198 11.1242C20.9725 10.9941 20.9996 10.8547 20.9995 10.714V9.64301C20.999 9.07488 20.7777 8.53012 20.3841 8.12834C19.9904 7.72656 19.4566 7.50058 18.8998 7.5H18.9004ZM10.5003 7.5C11.2271 7.5 11.9376 7.28007 12.542 6.86801C13.1463 6.45596 13.6174 5.87029 13.8955 5.18506C14.1737 4.49984 14.2465 3.74584 14.1047 3.01841C13.9629 2.29098 13.6129 1.6228 13.0989 1.09835C12.5849 0.573903 11.9301 0.216751 11.2172 0.0720569C10.5043 -0.0726377 9.76542 0.00162478 9.0939 0.285453C8.42238 0.569282 7.84842 1.04993 7.4446 1.66661C7.04079 2.2833 6.82525 3.00832 6.82525 3.75C6.82497 4.24249 6.91982 4.73021 7.10438 5.18528C7.28893 5.64034 7.55957 6.05382 7.90083 6.40209C8.24209 6.75036 8.64726 7.02659 9.0932 7.21497C9.53914 7.40336 10.0171 7.50022 10.4997 7.5H10.5003ZM13.0202 8.57151H12.7478C12.0488 8.92395 11.2797 9.10729 10.5 9.10729C9.72035 9.10729 8.95118 8.92395 8.25221 8.57151H7.97976C6.97733 8.57179 6.01605 8.97826 5.30723 9.70154C4.5984 10.4248 4.20007 11.4057 4.19979 12.4286V13.393C4.19993 13.8192 4.3659 14.2278 4.66121 14.5292C4.95652 14.8305 5.35701 14.9999 5.77464 15H15.2248C15.6425 14.9999 16.0429 14.8305 16.3383 14.5292C16.6336 14.2278 16.7995 13.8192 16.7997 13.393V12.4286C16.7994 11.4058 16.4011 10.425 15.6924 9.70173C14.9837 8.97847 14.0226 8.57194 13.0202 8.57151ZM5.68029 8.12311C5.28725 7.72375 4.75498 7.49985 4.20032 7.50054H2.10016C1.54338 7.50097 1.00952 7.72682 0.615775 8.1285C0.222025 8.53018 0.000562068 9.07488 5.36292e-07 9.64301V10.7145C-0.000138936 10.8553 0.026927 10.9947 0.079649 11.1247C0.132371 11.2548 0.209714 11.373 0.307251 11.4725C0.404787 11.572 0.520603 11.651 0.648067 11.7048C0.775531 11.7585 0.912142 11.7862 1.05008 11.786H3.21226C3.31222 11.0205 3.58778 10.2898 4.01652 9.65332C4.44527 9.01686 5.01511 8.49259 5.67976 8.12311H5.68029Z" fill="#929292"/>
</g>
<defs>
<clipPath id="clip0">
<rect width="21" height="15" fill="white"/>
</clipPath>
</defs>
</svg>
