<svg width="21" height="23" viewBox="0 0 21 23" fill="none" xmlns="http://www.w3.org/2000/svg">
<g clip-path="url(#clip0)">
<path d="M6.93722 12.938H5.06289C4.91785 12.9416 4.7773 12.8869 4.67191 12.7859C4.56652 12.6849 4.50485 12.5458 4.50035 12.399V10.6017C4.50485 10.4548 4.56652 10.3157 4.67191 10.2147C4.7773 10.1137 4.91785 10.0591 5.06289 10.0626H6.93804C7.08308 10.0591 7.22364 10.1137 7.32902 10.2147C7.43441 10.3157 7.49609 10.4548 7.50059 10.6017V12.399C7.49609 12.546 7.4343 12.6852 7.32873 12.7862C7.22317 12.8873 7.08241 12.9418 6.93722 12.938ZM12.0001 12.399V10.6017C11.9956 10.4548 11.9339 10.3157 11.8286 10.2147C11.7232 10.1137 11.5826 10.0591 11.4376 10.0626H9.56243C9.41739 10.0591 9.27683 10.1137 9.17144 10.2147C9.06605 10.3157 9.00438 10.4548 8.99988 10.6017V12.399C9.00438 12.5458 9.06605 12.6849 9.17144 12.7859C9.27683 12.8869 9.41739 12.9416 9.56243 12.938H11.4376C11.5828 12.9416 11.7234 12.8868 11.8288 12.7857C11.9343 12.6845 11.9958 12.5452 12.0001 12.3981V12.399ZM16.5037 12.399V10.6017C16.4992 10.4548 16.4376 10.3157 16.3322 10.2147C16.2268 10.1137 16.0862 10.0591 15.9412 10.0626H14.0661C13.921 10.0591 13.7805 10.1137 13.6751 10.2147C13.5697 10.3157 13.508 10.4548 13.5035 10.6017V12.399C13.508 12.5458 13.5697 12.6849 13.6751 12.7859C13.7805 12.8869 13.921 12.9416 14.0661 12.938H15.9412C16.0858 12.9407 16.2257 12.8855 16.3304 12.7845C16.4351 12.6834 16.4962 12.5446 16.5005 12.3981L16.5037 12.399ZM12.0001 16.7117V14.9136C11.9956 14.7667 11.9339 14.6276 11.8286 14.5266C11.7232 14.4256 11.5826 14.3709 11.4376 14.3745H9.56243C9.41739 14.3709 9.27683 14.4256 9.17144 14.5266C9.06605 14.6276 9.00438 14.7667 8.99988 14.9136V16.7108C9.00438 16.8577 9.06605 16.9968 9.17144 17.0978C9.27683 17.1988 9.41739 17.2535 9.56243 17.2499H11.4376C11.5826 17.2535 11.7232 17.1988 11.8286 17.0978C11.9339 16.9968 11.9956 16.8577 12.0001 16.7108V16.7117ZM7.49649 16.7117V14.9136C7.49199 14.7667 7.43032 14.6276 7.32493 14.5266C7.21954 14.4256 7.07899 14.3709 6.93395 14.3745H5.06289C4.91785 14.3709 4.7773 14.4256 4.67191 14.5266C4.56652 14.6276 4.50485 14.7667 4.50035 14.9136V16.7108C4.50485 16.8577 4.56652 16.9968 4.67191 17.0978C4.7773 17.1988 4.91785 17.2535 5.06289 17.2499H6.93804C7.08294 17.2533 7.22329 17.1985 7.3285 17.0975C7.43371 16.9966 7.49527 16.8576 7.49977 16.7108L7.49649 16.7117ZM16.4964 16.7117V14.9136C16.4919 14.7667 16.4302 14.6276 16.3248 14.5266C16.2194 14.4256 16.0789 14.3709 15.9338 14.3745H14.0587C13.9136 14.3709 13.7731 14.4256 13.6677 14.5266C13.5623 14.6276 13.5006 14.7667 13.4961 14.9136V16.7108C13.5006 16.8577 13.5623 16.9968 13.6677 17.0978C13.7731 17.1988 13.9136 17.2535 14.0587 17.2499H15.9338C16.006 17.2522 16.0779 17.2401 16.1454 17.2143C16.213 17.1885 16.2748 17.1494 16.3275 17.0993C16.3801 17.0493 16.4224 16.9892 16.4521 16.9225C16.4818 16.8559 16.4982 16.7839 16.5005 16.7108L16.4964 16.7117ZM21 5.03169V20.8436C20.9833 21.4315 20.737 21.9888 20.3151 22.393C19.8933 22.7973 19.3304 23.0155 18.7498 22.9999H2.25018C1.66964 23.0155 1.1067 22.7973 0.684853 22.393C0.263006 21.9888 0.0167099 21.4315 0 20.8436L0 5.03086C0.0167099 4.4429 0.263006 3.88566 0.684853 3.48141C1.1067 3.07715 1.66964 2.85889 2.25018 2.87451H4.50363V0.539009C4.50812 0.392716 4.56934 0.254107 4.67402 0.153205C4.7787 0.0523032 4.91841 -0.00276773 5.06289 -7.92692e-05H6.93804C7.08308 -0.00365394 7.22364 0.051022 7.32902 0.152017C7.43441 0.253013 7.49609 0.392129 7.50059 0.539009V2.87451H13.5002V0.539009C13.5047 0.392129 13.5664 0.253013 13.6718 0.152017C13.7772 0.051022 13.9177 -0.00365394 14.0628 -7.92692e-05H15.9379C16.083 -0.00365394 16.2235 0.051022 16.3289 0.152017C16.4343 0.253013 16.496 0.392129 16.5005 0.539009V2.87451H18.7515C19.3317 2.85933 19.8942 3.0778 20.3157 3.48201C20.7372 3.88622 20.9833 4.4432 21 5.03086V5.03169ZM18.7515 20.574V7.18721H2.25018V20.574C2.25253 20.6474 2.28334 20.7168 2.33592 20.7672C2.38851 20.8177 2.45862 20.8451 2.53104 20.8436H18.469C18.5417 20.8456 18.6122 20.8184 18.6651 20.7678C18.7181 20.7173 18.7491 20.6476 18.7515 20.574Z" fill="#929292"/>
</g>
<defs>
<clipPath id="clip0">
<rect width="21" height="23" fill="white"/>
</clipPath>
</defs>
</svg>
