<svg width="40" height="32" viewBox="0 0 40 32" fill="none" xmlns="http://www.w3.org/2000/svg">
<g clip-path="url(#clip0)">
<path fill-rule="evenodd" clip-rule="evenodd" d="M5.39366 17.2069C6.8372 18.6252 8.81644 19.5 11 19.5C15.4183 19.5 19 15.9183 19 11.5C19 10.7967 18.9093 10.1147 18.7388 9.4649C20.5582 7.06106 23.4969 5.5 26.8125 5.5C32.3353 5.5 36.8125 9.83139 36.8125 15.1744C36.8125 16.1308 36.669 17.0548 36.4018 17.9274C37.5108 18.5299 38.4099 19.4004 39.0319 20.4738C39.6549 21.5488 40 22.8273 40 24.2442C40 25.6611 39.6549 26.9396 39.0319 28.0145C38.409 29.0895 37.5083 29.9608 36.3972 30.5635C35.2861 31.1661 33.9646 31.5 32.5 31.5H7.5C6.03541 31.5 4.71388 31.1661 3.60277 30.5635C2.49166 29.9608 1.59097 29.0895 0.968051 28.0145C0.345137 26.9396 0 25.6611 0 24.2442C0 22.8273 0.345137 21.5488 0.968051 20.4738C1.59097 19.3989 2.49166 18.5275 3.60277 17.9249C3.95322 17.7348 4.3246 17.5715 4.7148 17.4369C4.70981 17.4037 5.00293 17.3294 5.39366 17.2069Z" fill="#313131"/>
<path d="M11 17.5C14.3137 17.5 17 14.8137 17 11.5C17 8.18629 14.3137 5.5 11 5.5C7.68629 5.5 5 8.18629 5 11.5C5 14.8137 7.68629 17.5 11 17.5Z" fill="#313131"/>
<path fill-rule="evenodd" clip-rule="evenodd" d="M11.0001 0.5C11.5524 0.5 12.0001 0.947715 12.0001 1.5V3.5C12.0001 4.05228 11.5524 4.5 11.0001 4.5C10.4478 4.5 10.0001 4.05228 10.0001 3.5V1.5C10.0001 0.947715 10.4478 0.5 11.0001 0.5ZM18.0708 3.07351C18.4938 3.42851 18.549 4.05927 18.194 4.48234L16.9084 6.01443C16.5534 6.43751 15.9227 6.49269 15.4996 6.13769C15.0765 5.78269 15.0214 5.15193 15.3764 4.72886L16.6619 3.19677C17.0169 2.77369 17.6477 2.71851 18.0708 3.07351ZM1.47382 17C1.19768 16.5217 1.36155 15.9101 1.83985 15.634L3.5719 14.634C4.05019 14.3578 4.66178 14.5217 4.93792 15C5.21407 15.4783 5.05019 16.0899 4.5719 16.366L2.83985 17.366C2.36155 17.6422 1.74996 17.4783 1.47382 17ZM0.167215 9.58987C0.263118 9.04598 0.781776 8.68281 1.32567 8.77871L3.29529 9.12601C3.83918 9.22191 4.20235 9.74057 4.10645 10.2845C4.01054 10.8284 3.49188 11.1915 2.94799 11.0956L0.978375 10.7483C0.43448 10.6524 0.0713117 10.1338 0.167215 9.58987ZM3.92944 3.07351C4.35251 2.71851 4.98327 2.77369 5.33827 3.19677L6.62384 4.72886C6.97885 5.15193 6.92366 5.78269 6.50059 6.13769C6.07751 6.49269 5.44676 6.43751 5.09175 6.01443L3.80618 4.48234C3.45118 4.05927 3.50636 3.42851 3.92944 3.07351Z" fill="#313131"/>
</g>
<rect width="40" height="32" stroke="white"/>
<defs>
<clipPath id="clip0">
</clipPath>
</defs>
</svg>
